<svg width="105" height="21" viewBox="0 0 105 21" fill="none" xmlns="http://www.w3.org/2000/svg">
<path fill-rule="evenodd" clip-rule="evenodd" d="M6.47988 0.988272L5.49893 1.97654L6.49902 2.98025L7.49918 3.98396L8.5057 2.97192L9.51221 1.95988L8.54319 0.979942C8.01029 0.440963 7.54874 0 7.51753 0C7.48639 0 7.01949 0.444697 6.47988 0.988272ZM2.2662 1.41933L1.49971 2.19247L2.32098 3.01587L3.14224 3.83927V2.2428C3.14224 1.36468 3.1176 0.646258 3.08747 0.646258C3.05733 0.646258 2.68776 0.99416 2.2662 1.41933ZM11.8548 2.1901C11.8548 3.03921 11.8795 3.73393 11.9096 3.73393C11.9397 3.73393 12.3168 3.37849 12.7475 2.94406L13.5306 2.15426L12.7832 1.40022C12.3722 0.985543 11.9952 0.646258 11.9454 0.646258C11.875 0.646258 11.8548 0.991287 11.8548 2.1901ZM0 5.98313V7.51418L0.54825 8.06551C0.849834 8.36868 1.10693 8.61677 1.11957 8.61677C1.13228 8.61677 1.14263 7.95435 1.14263 7.14474V5.67271H1.53541H1.92819V10.2237V14.7747L2.50815 15.3579C2.82716 15.6786 3.10032 15.941 3.11518 15.941C3.1301 15.941 3.14224 13.356 3.14224 10.1965V4.452H1.57112H0V5.98313ZM3.9278 7.96312V11.4742L4.46834 12.0022C4.76564 12.2926 5.0388 12.541 5.07536 12.5541C5.11578 12.5687 5.14185 11.2252 5.14185 9.12537V5.67271H5.53463H5.92741V12.7654V19.8581L6.44688 20.3769C6.73254 20.6622 7.0057 20.8957 7.05391 20.8957C7.15739 20.8957 7.16853 17.7691 7.09404 9.63391L7.04655 4.452H5.48721H3.9278V7.96312ZM7.92702 12.726V21L8.49834 20.4289L9.06966 19.8578V14.3925C9.06966 11.3866 9.09087 8.19491 9.11679 7.29998L9.16385 5.67271H9.50957H9.85522V9.11941C9.85522 11.6718 9.87657 12.5661 9.93749 12.5661C9.98269 12.5661 10.2719 12.3045 10.5802 11.9848L11.1407 11.4036V8.04138C11.1407 6.19215 11.1212 4.62807 11.0973 4.5656C11.0596 4.46679 10.8503 4.452 9.4905 4.452H7.92702V12.726ZM11.9038 4.49846C11.8357 4.56696 11.8419 15.941 11.91 15.941C11.9405 15.941 12.2136 15.6899 12.5171 15.3829L13.0689 14.8249V10.2488V5.67271H13.4259H13.783V7.18064C13.783 8.01 13.8079 8.68858 13.8382 8.68858C13.8686 8.68858 14.1425 8.43675 14.4467 8.12899L15 7.56947L14.9806 6.02865L14.9614 4.4879L13.4571 4.46859C12.6297 4.45796 11.9307 4.47139 11.9038 4.49846Z" fill="#F7F6F1"/>
<path d="M25.16 6.496V7.84H22.472V9.628H24.992V10.972H22.472V14.5H20.912V6.496H25.16ZM26.5018 6.496H28.0618V11.524C28.0618 12.028 28.1898 12.424 28.4458 12.712C28.7498 13.08 29.1738 13.264 29.7178 13.264C30.2618 13.264 30.6858 13.08 30.9898 12.712C31.2458 12.424 31.3738 12.028 31.3738 11.524V6.496H32.9338V11.392C32.9338 12.304 32.7338 13.016 32.3338 13.528C32.0538 13.896 31.6778 14.18 31.2058 14.38C30.7418 14.58 30.2458 14.68 29.7178 14.68C29.1898 14.68 28.6898 14.58 28.2178 14.38C27.7538 14.18 27.3818 13.896 27.1018 13.528C26.7018 13.016 26.5018 12.304 26.5018 11.392V6.496ZM36.3236 14.5H34.7636V6.496H35.8436L40.7156 11.836V6.496H42.2756V14.5H41.1956L36.3236 9.148V14.5ZM44.1034 6.496H46.1914C46.8234 6.496 47.3754 6.552 47.8474 6.664C48.3194 6.768 48.7594 6.972 49.1674 7.276C49.6554 7.644 50.0314 8.108 50.2954 8.668C50.5674 9.228 50.7034 9.84 50.7034 10.504C50.7034 11.904 50.1674 12.98 49.0954 13.732C48.6634 14.036 48.2234 14.24 47.7754 14.344C47.3274 14.448 46.7914 14.5 46.1674 14.5H44.1034V6.496ZM45.6634 7.84V13.156H46.1434C46.9594 13.156 47.6114 12.98 48.0994 12.628C48.4114 12.404 48.6554 12.104 48.8314 11.728C49.0074 11.344 49.0954 10.936 49.0954 10.504C49.0954 10.08 49.0074 9.68 48.8314 9.304C48.6634 8.92 48.4234 8.608 48.1114 8.368C47.6394 8.016 46.9834 7.84 46.1434 7.84H45.6634ZM52.1425 6.496H53.7025V14.5H52.1425V6.496ZM57.0892 14.5H55.5292V6.496H56.6092L61.4812 11.836V6.496H63.0412V14.5H61.9612L57.0892 9.148V14.5ZM68.925 11.56V10.216H72.597V10.312C72.597 11.744 72.205 12.848 71.421 13.624C70.717 14.328 69.769 14.68 68.577 14.68C67.361 14.68 66.393 14.32 65.673 13.6C64.881 12.808 64.485 11.78 64.485 10.516C64.485 9.316 64.877 8.324 65.661 7.54C66.461 6.724 67.513 6.316 68.817 6.316C69.521 6.316 70.137 6.456 70.665 6.736C71.281 7.048 71.781 7.536 72.165 8.2L70.809 8.932C70.593 8.516 70.281 8.2 69.873 7.984C69.537 7.816 69.161 7.732 68.745 7.732C67.993 7.732 67.377 7.968 66.897 8.44C66.361 8.96 66.093 9.664 66.093 10.552C66.093 11.392 66.357 12.068 66.885 12.58C67.357 13.036 67.949 13.264 68.661 13.264C69.285 13.264 69.809 13.104 70.233 12.784C70.617 12.488 70.869 12.08 70.989 11.56H68.925ZM81.1539 7.84H79.3539V14.5H77.7939V7.84H75.9939V6.496H81.1539V7.84ZM82.1425 6.496H84.4585C85.3385 6.496 86.0185 6.696 86.4985 7.096C87.0265 7.544 87.2905 8.144 87.2905 8.896C87.2905 9.736 86.9785 10.364 86.3545 10.78C86.1145 10.948 85.8225 11.064 85.4785 11.128L87.9745 14.5H86.0305L83.8945 11.284H83.7025V14.5H82.1425V6.496ZM83.7025 7.768V10.18H84.1465C84.2745 10.18 84.3985 10.172 84.5185 10.156C84.6465 10.132 84.8105 10.088 85.0105 10.024C85.2105 9.952 85.3705 9.828 85.4905 9.652C85.6185 9.468 85.6825 9.24 85.6825 8.968C85.6825 8.696 85.6225 8.472 85.5025 8.296C85.3825 8.112 85.2225 7.988 85.0225 7.924C84.8225 7.852 84.6625 7.808 84.5425 7.792C84.4225 7.776 84.2985 7.768 84.1705 7.768H83.7025ZM89.0331 6.496H90.5931V14.5H89.0331V6.496ZM92.4198 6.496H94.3998C95.2718 6.496 95.9238 6.664 96.3558 7C96.8518 7.384 97.0998 7.936 97.0998 8.656C97.0998 9.368 96.7998 9.892 96.1998 10.228C96.6078 10.292 96.9558 10.46 97.2438 10.732C97.6278 11.1 97.8198 11.6 97.8198 12.232C97.8198 12.904 97.5918 13.444 97.1358 13.852C96.6478 14.284 95.9718 14.5 95.1078 14.5H92.4198V6.496ZM93.9798 7.768V9.82H94.4238C94.5038 9.82 94.5758 9.82 94.6398 9.82C94.7118 9.812 94.8118 9.788 94.9398 9.748C95.0758 9.708 95.1878 9.656 95.2758 9.592C95.3718 9.52 95.4558 9.416 95.5278 9.28C95.5998 9.136 95.6358 8.968 95.6358 8.776C95.6358 8.432 95.5238 8.18 95.2998 8.02C95.0758 7.852 94.7878 7.768 94.4358 7.768H93.9798ZM93.9798 11.02V13.228H94.6518C95.1158 13.228 95.4718 13.156 95.7198 13.012C96.0478 12.82 96.2118 12.512 96.2118 12.088C96.2118 11.656 96.0158 11.352 95.6238 11.176C95.3998 11.072 95.0438 11.02 94.5558 11.02H93.9798ZM103.704 6.496V7.84H100.824V9.628H103.584V10.972H100.824V13.156H103.704V14.5H99.2636V6.496H103.704Z" fill="#F7F6F1"/>
</svg>
